G75*
%MOIN*%
%OFA0B0*%
%FSLAX25Y25*%
%IPPOS*%
%LPD*%
%AMOC8*
5,1,8,0,0,1.08239X$1,22.5*
%
%ADD10C,0.00800*%
%ADD11C,0.00500*%
D10*
X0011500Y0013000D02*
X0014000Y0010500D01*
X0019000Y0010500D01*
X0021500Y0013000D01*
X0021500Y0018000D01*
X0019000Y0020500D01*
X0014000Y0020500D01*
X0011500Y0018000D01*
X0011500Y0013000D01*
X0021500Y0013000D02*
X0024000Y0010500D01*
X0029000Y0010500D01*
X0031500Y0013000D01*
X0031500Y0018000D01*
X0029000Y0020500D01*
X0024000Y0020500D01*
X0021500Y0018000D01*
X0021500Y0013000D01*
X0031500Y0013000D02*
X0034000Y0010500D01*
X0039000Y0010500D01*
X0041500Y0013000D01*
X0044000Y0010500D01*
X0049000Y0010500D01*
X0051500Y0013000D01*
X0054000Y0010500D01*
X0059000Y0010500D01*
X0061500Y0013000D01*
X0061500Y0018000D01*
X0059000Y0020500D01*
X0054000Y0020500D01*
X0051500Y0018000D01*
X0049000Y0020500D01*
X0044000Y0020500D01*
X0041500Y0018000D01*
X0039000Y0020500D01*
X0034000Y0020500D01*
X0031500Y0018000D01*
X0031500Y0013000D01*
X0011500Y0059000D02*
X0051500Y0059000D01*
X0051500Y0082000D01*
X0011500Y0082000D01*
X0011500Y0074500D01*
X0011626Y0074498D01*
X0011751Y0074492D01*
X0011876Y0074482D01*
X0012001Y0074468D01*
X0012126Y0074451D01*
X0012250Y0074429D01*
X0012373Y0074404D01*
X0012495Y0074374D01*
X0012616Y0074341D01*
X0012736Y0074304D01*
X0012855Y0074264D01*
X0012972Y0074219D01*
X0013089Y0074171D01*
X0013203Y0074119D01*
X0013316Y0074064D01*
X0013427Y0074005D01*
X0013536Y0073943D01*
X0013643Y0073877D01*
X0013748Y0073808D01*
X0013851Y0073736D01*
X0013952Y0073661D01*
X0014050Y0073582D01*
X0014145Y0073500D01*
X0014238Y0073416D01*
X0014328Y0073328D01*
X0014416Y0073238D01*
X0014500Y0073145D01*
X0014582Y0073050D01*
X0014661Y0072952D01*
X0014736Y0072851D01*
X0014808Y0072748D01*
X0014877Y0072643D01*
X0014943Y0072536D01*
X0015005Y0072427D01*
X0015064Y0072316D01*
X0015119Y0072203D01*
X0015171Y0072089D01*
X0015219Y0071972D01*
X0015264Y0071855D01*
X0015304Y0071736D01*
X0015341Y0071616D01*
X0015374Y0071495D01*
X0015404Y0071373D01*
X0015429Y0071250D01*
X0015451Y0071126D01*
X0015468Y0071001D01*
X0015482Y0070876D01*
X0015492Y0070751D01*
X0015498Y0070626D01*
X0015500Y0070500D01*
X0015498Y0070374D01*
X0015492Y0070249D01*
X0015482Y0070124D01*
X0015468Y0069999D01*
X0015451Y0069874D01*
X0015429Y0069750D01*
X0015404Y0069627D01*
X0015374Y0069505D01*
X0015341Y0069384D01*
X0015304Y0069264D01*
X0015264Y0069145D01*
X0015219Y0069028D01*
X0015171Y0068911D01*
X0015119Y0068797D01*
X0015064Y0068684D01*
X0015005Y0068573D01*
X0014943Y0068464D01*
X0014877Y0068357D01*
X0014808Y0068252D01*
X0014736Y0068149D01*
X0014661Y0068048D01*
X0014582Y0067950D01*
X0014500Y0067855D01*
X0014416Y0067762D01*
X0014328Y0067672D01*
X0014238Y0067584D01*
X0014145Y0067500D01*
X0014050Y0067418D01*
X0013952Y0067339D01*
X0013851Y0067264D01*
X0013748Y0067192D01*
X0013643Y0067123D01*
X0013536Y0067057D01*
X0013427Y0066995D01*
X0013316Y0066936D01*
X0013203Y0066881D01*
X0013089Y0066829D01*
X0012972Y0066781D01*
X0012855Y0066736D01*
X0012736Y0066696D01*
X0012616Y0066659D01*
X0012495Y0066626D01*
X0012373Y0066596D01*
X0012250Y0066571D01*
X0012126Y0066549D01*
X0012001Y0066532D01*
X0011876Y0066518D01*
X0011751Y0066508D01*
X0011626Y0066502D01*
X0011500Y0066500D01*
X0011500Y0059000D01*
D11*
X0010466Y0057919D02*
X0010689Y0057564D01*
X0010828Y0057167D01*
X0010875Y0056750D01*
X0010828Y0056333D01*
X0010689Y0055936D01*
X0010466Y0055581D01*
X0010169Y0055284D01*
X0009814Y0055061D01*
X0009417Y0054922D01*
X0009000Y0054875D01*
X0008583Y0054922D01*
X0008186Y0055061D01*
X0007831Y0055284D01*
X0007534Y0055581D01*
X0007311Y0055936D01*
X0007172Y0056333D01*
X0007125Y0056750D01*
X0007172Y0057167D01*
X0007311Y0057564D01*
X0007534Y0057919D01*
X0007831Y0058216D01*
X0008186Y0058439D01*
X0008583Y0058578D01*
X0009000Y0058625D01*
X0009417Y0058578D01*
X0009814Y0058439D01*
X0010169Y0058216D01*
X0010466Y0057919D01*
X0010341Y0058044D02*
X0007659Y0058044D01*
X0007305Y0057546D02*
X0010695Y0057546D01*
X0010841Y0057047D02*
X0007159Y0057047D01*
X0007148Y0056549D02*
X0010852Y0056549D01*
X0010729Y0056050D02*
X0007271Y0056050D01*
X0007563Y0055552D02*
X0010437Y0055552D01*
X0009793Y0055053D02*
X0008207Y0055053D01*
X0008483Y0058543D02*
X0009517Y0058543D01*
M02*
